<svg xmlns="http://www.w3.org/2000/svg" xmlns:xlink="http://www.w3.org/1999/xlink" viewBox="0 0 279.1 346.6" xmlns:v="https://vecta.io/nano"><svg width="259.9" height="259.9" viewBox="0 0 2000 2000" x="9.7" y="9.6" shape-rendering="crispEdges"><path fill="#fff" d="M0 0h2000v2000H0z"/><path d="M629 173h57v57h-57zm285 0h57v57h-57zm114 0h57v57h-57z"/><path d="M1085 173h57v57h-57zm114 0h57v57h-57zm114 0h57v57h-57zm-684 57h57v57h-57zm171 0h57v57h-57z"/><path d="M857 230h57v57h-57z"/><path d="M914 230h57v57h-57z"/><path d="M971 230h57v57h-57zm114 0h57v57h-57zm171 0h57v57h-57z"/><path d="M1313 230h57v57h-57zm-684 57h57v57h-57z"/><path d="M686 287h57v57h-57zm171 0h57v57h-57zm228 0h57v57h-57z"/><path d="M1142 287h57v57h-57zm114 0h57v57h-57z"/><path d="M1313 287h57v57h-57zm-684 57h57v57h-57z"/><path d="M686 344h57v57h-57z"/><path d="M743 344h57v57h-57zm114 0h57v57h-57zm171 0h57v57h-57z"/><path d="M1085 344h57v57h-57z"/><path d="M1142 344h57v57h-57z"/><path d="M1199 344h57v57h-57zm114 0h57v57h-57zm-627 57h57v57h-57z"/><path d="M743 401h57v57h-57zm114 0h57v57h-57zm114 0h57v57h-57z"/><path d="M1028 401h57v57h-57zm171 0h57v57h-57z"/><path d="M1256 401h57v57h-57zm-627 57h57v57h-57z"/><path d="M686 458h57v57h-57z"/><path d="M743 458h57v57h-57zm285 0h57v57h-57z"/><path d="M1085 458h57v57h-57zm171 0h57v57h-57zm-627 57h57v57h-57zm114 0h57v57h-57zm114 0h57v57h-57zm114 0h57v57h-57z"/><path d="M1085 515h57v57h-57zm114 0h57v57h-57zm114 0h57v57h-57zm-570 57h57v57h-57z"/><path d="M800 572h57v57h-57zm114 0h57v57h-57zm228 0h57v57h-57zm114 0h57v57h-57zM173 629h57v57h-57z"/><path d="M230 629h57v57h-57zm171 0h57v57h-57z"/><path d="M458 629h57v57h-57z"/><path d="M515 629h57v57h-57zm228 0h57v57h-57zm114 0h57v57h-57z"/><path d="M914 629h57v57h-57zm342 0h57v57h-57zm228 0h57v57h-57zm114 0h57v57h-57z"/><path d="M1655 629h57v57h-57z"/><path d="M1712 629h57v57h-57z"/><path d="M1769 629h57v57h-57zM173 686h57v57h-57z"/><path d="M230 686h57v57h-57z"/><path d="M287 686h57v57h-57z"/><path d="M344 686h57v57h-57zm114 0h57v57h-57zm114 0h57v57h-57z"/><path d="M629 686h57v57h-57zm285 0h57v57h-57z"/><path d="M971 686h57v57h-57z"/><path d="M1028 686h57v57h-57zm228 0h57v57h-57z"/><path d="M1313 686h57v57h-57zm114 0h57v57h-57zm114 0h57v57h-57zm114 0h57v57h-57zM173 743h57v57h-57z"/><path d="M230 743h57v57h-57zm114 0h57v57h-57z"/><path d="M401 743h57v57h-57zm114 0h57v57h-57zm171 0h57v57h-57z"/><path d="M743 743h57v57h-57zm285 0h57v57h-57zm114 0h57v57h-57z"/><path d="M1199 743h57v57h-57zm228 0h57v57h-57zm114 0h57v57h-57z"/><path d="M1598 743h57v57h-57z"/><path d="M1655 743h57v57h-57zm114 0h57v57h-57zM230 800h57v57h-57z"/><path d="M287 800h57v57h-57zm114 0h57v57h-57z"/><path d="M458 800h57v57h-57zm171 0h57v57h-57z"/><path d="M686 800h57v57h-57zm171 0h57v57h-57zm114 0h57v57h-57zm114 0h57v57h-57z"/><path d="M1142 800h57v57h-57zm171 0h57v57h-57z"/><path d="M1370 800h57v57h-57zm228 0h57v57h-57zM515 857h57v57h-57z"/><path d="M572 857h57v57h-57z"/><path d="M629 857h57v57h-57zm171 0h57v57h-57zm114 0h57v57h-57z"/><path d="M971 857h57v57h-57zm171 0h57v57h-57z"/><path d="M1199 857h57v57h-57z"/><path d="M1256 857h57v57h-57zm114 0h57v57h-57z"/><path d="M1427 857h57v57h-57z"/><path d="M1484 857h57v57h-57zm114 0h57v57h-57z"/><path d="M1655 857h57v57h-57z"/><path d="M1712 857h57v57h-57zM230 914h57v57h-57z"/><path d="M287 914h57v57h-57z"/><path d="M344 914h57v57h-57z"/><path d="M401 914h57v57h-57zm342 0h57v57h-57zm114 0h57v57h-57zm228 0h57v57h-57zm285 0h57v57h-57zm114 0h57v57h-57zm171 0h57v57h-57zM287 971h57v57h-57z"/><path d="M401 971h57v57h-57zm114 0h57v57h-57zm171 0h57v57h-57zm114 0h57v57h-57z"/><path d="M857 971h57v57h-57z"/><path d="M914 971h57v57h-57z"/><path d="M971 971h57v57h-57z"/><path d="M1028 971h57v57h-57zm171 0h57v57h-57z"/><path d="M1256 971h57v57h-57zm171 0h57v57h-57z"/><path d="M1484 971h57v57h-57z"/><path d="M1541 971h57v57h-57z"/><path d="M1598 971h57v57h-57z"/><path d="M1655 971h57v57h-57z"/><path d="M1712 971h57v57h-57zm-1539 57h57v57h-57z"/><path d="M230 1028h57v57h-57z"/><path d="M287 1028h57v57h-57z"/><path d="M344 1028h57v57h-57z"/><path d="M401 1028h57v57h-57zm171 0h57v57h-57z"/><path d="M629 1028h57v57h-57zm114 0h57v57h-57z"/><path d="M800 1028h57v57h-57zm114 0h57v57h-57zm171 0h57v57h-57zm114 0h57v57h-57z"/><path d="M1256 1028h57v57h-57zm456 0h57v57h-57zm-1539 57h57v57h-57z"/><path d="M230 1085h57v57h-57zm171 0h57v57h-57z"/><path d="M458 1085h57v57h-57z"/><path d="M515 1085h57v57h-57z"/><path d="M572 1085h57v57h-57z"/><path d="M629 1085h57v57h-57z"/><path d="M686 1085h57v57h-57zm171 0h57v57h-57z"/><path d="M914 1085h57v57h-57zm228 0h57v57h-57z"/><path d="M1199 1085h57v57h-57z"/><path d="M1256 1085h57v57h-57zm342 0h57v57h-57z"/><path d="M1655 1085h57v57h-57z"/><path d="M1712 1085h57v57h-57zm-1539 57h57v57h-57zm114 0h57v57h-57zm114 0h57v57h-57z"/><path d="M458 1142h57v57h-57zm114 0h57v57h-57z"/><path d="M629 1142h57v57h-57zm285 0h57v57h-57z"/><path d="M971 1142h57v57h-57z"/><path d="M1028 1142h57v57h-57z"/><path d="M1085 1142h57v57h-57zm114 0h57v57h-57z"/><path d="M1256 1142h57v57h-57zm114 0h57v57h-57z"/><path d="M1427 1142h57v57h-57z"/><path d="M1484 1142h57v57h-57z"/><path d="M1541 1142h57v57h-57zm114 0h57v57h-57z"/><path d="M1712 1142h57v57h-57z"/><path d="M1769 1142h57v57h-57zm-1368 57h57v57h-57z"/><path d="M458 1199h57v57h-57z"/><path d="M515 1199h57v57h-57zm228 0h57v57h-57zm342 0h57v57h-57z"/><path d="M1142 1199h57v57h-57z"/><path d="M1199 1199h57v57h-57zm171 0h57v57h-57z"/><path d="M1427 1199h57v57h-57z"/><path d="M1484 1199h57v57h-57z"/><path d="M1541 1199h57v57h-57z"/><path d="M1598 1199h57v57h-57z"/><path d="M1655 1199h57v57h-57z"/><path d="M1712 1199h57v57h-57z"/><path d="M1769 1199h57v57h-57zm-1482 57h57v57h-57z"/><path d="M344 1256h57v57h-57zm114 0h57v57h-57zm114 0h57v57h-57zm114 0h57v57h-57zm171 0h57v57h-57zm114 0h57v57h-57z"/><path d="M1028 1256h57v57h-57zm114 0h57v57h-57zm114 0h57v57h-57z"/><path d="M1313 1256h57v57h-57z"/><path d="M1370 1256h57v57h-57zm342 0h57v57h-57zm-1539 57h57v57h-57z"/><path d="M230 1313h57v57h-57z"/><path d="M287 1313h57v57h-57z"/><path d="M344 1313h57v57h-57zm114 0h57v57h-57z"/><path d="M515 1313h57v57h-57zm114 0h57v57h-57z"/><path d="M686 1313h57v57h-57zm114 0h57v57h-57zm114 0h57v57h-57z"/><path d="M971 1313h57v57h-57zm171 0h57v57h-57z"/><path d="M1199 1313h57v57h-57z"/><path d="M1256 1313h57v57h-57z"/><path d="M1313 1313h57v57h-57z"/><path d="M1370 1313h57v57h-57z"/><path d="M1427 1313h57v57h-57z"/><path d="M1484 1313h57v57h-57z"/><path d="M1541 1313h57v57h-57zm-912 57h57v57h-57zm114 0h57v57h-57zm114 0h57v57h-57zm228 0h57v57h-57zm114 0h57v57h-57z"/><path d="M1256 1370h57v57h-57z"/><path d="M1313 1370h57v57h-57zm228 0h57v57h-57z"/><path d="M1598 1370h57v57h-57z"/><path d="M1655 1370h57v57h-57zm-855 57h57v57h-57z"/><path d="M857 1427h57v57h-57z"/><path d="M914 1427h57v57h-57z"/><path d="M971 1427h57v57h-57z"/><path d="M1028 1427h57v57h-57zm171 0h57v57h-57zm114 0h57v57h-57zm114 0h57v57h-57zm114 0h57v57h-57z"/><path d="M1598 1427h57v57h-57z"/><path d="M1655 1427h57v57h-57zm114 0h57v57h-57zm-1140 57h57v57h-57z"/><path d="M686 1484h57v57h-57z"/><path d="M743 1484h57v57h-57z"/><path d="M800 1484h57v57h-57zm114 0h57v57h-57zm171 0h57v57h-57z"/><path d="M1142 1484h57v57h-57z"/><path d="M1199 1484h57v57h-57z"/><path d="M1256 1484h57v57h-57z"/><path d="M1313 1484h57v57h-57zm228 0h57v57h-57zm114 0h57v57h-57z"/><path d="M1712 1484h57v57h-57zm-1083 57h57v57h-57zm114 0h57v57h-57zm114 0h57v57h-57z"/><path d="M914 1541h57v57h-57zm171 0h57v57h-57zm228 0h57v57h-57z"/><path d="M1370 1541h57v57h-57z"/><path d="M1427 1541h57v57h-57z"/><path d="M1484 1541h57v57h-57z"/><path d="M1541 1541h57v57h-57z"/><path d="M1598 1541h57v57h-57zm171 0h57v57h-57zm-1083 57h57v57h-57zm228 0h57v57h-57z"/><path d="M971 1598h57v57h-57zm114 0h57v57h-57zm114 0h57v57h-57z"/><path d="M1256 1598h57v57h-57zm114 0h57v57h-57z"/><path d="M1427 1598h57v57h-57z"/><path d="M1484 1598h57v57h-57zm114 0h57v57h-57z"/><path d="M1655 1598h57v57h-57z"/><path d="M1712 1598h57v57h-57zm-1026 57h57v57h-57z"/><path d="M743 1655h57v57h-57zm285 0h57v57h-57z"/><path d="M1085 1655h57v57h-57z"/><path d="M1142 1655h57v57h-57z"/><path d="M1199 1655h57v57h-57z"/><path d="M1256 1655h57v57h-57zm114 0h57v57h-57zm171 0h57v57h-57zm114 0h57v57h-57z"/><path d="M1712 1655h57v57h-57z"/><path d="M1769 1655h57v57h-57zm-1140 57h57v57h-57zm228 0h57v57h-57zm114 0h57v57h-57z"/><path d="M1028 1712h57v57h-57zm171 0h57v57h-57z"/><path d="M1256 1712h57v57h-57z"/><path d="M1313 1712h57v57h-57zm114 0h57v57h-57z"/><path d="M1484 1712h57v57h-57z"/><path d="M1541 1712h57v57h-57z"/><path d="M1598 1712h57v57h-57z"/><path d="M1655 1712h57v57h-57zm-1026 57h57v57h-57z"/><path d="M686 1769h57v57h-57z"/><path d="M743 1769h57v57h-57z"/><path d="M800 1769h57v57h-57zm114 0h57v57h-57z"/><path d="M971 1769h57v57h-57zm228 0h57v57h-57zm114 0h57v57h-57zm114 0h57v57h-57zm114 0h57v57h-57zm171 0h57v57h-57z"/><svg x="173" y="173" width="399" height="399" viewBox="0 0 699.988 699.986" xml:space="preserve"><use xlink:href="#B"/></svg><svg x="173" y="173" width="399" height="399" viewBox="0 0 699.988 699.988" xml:space="preserve"><use xlink:href="#C"/></svg><svg x="1427" y="173" width="399" height="399" viewBox="0 0 699.988 699.986" xml:space="preserve"><use xlink:href="#B"/></svg><svg x="1427" y="173" width="399" height="399" viewBox="0 0 699.988 699.988" xml:space="preserve"><use xlink:href="#C"/></svg><svg x="173" y="1427" width="399" height="399" viewBox="0 0 699.988 699.986" xml:space="preserve"><use xlink:href="#B"/></svg><svg x="173" y="1427" width="399" height="399" viewBox="0 0 699.988 699.988" xml:space="preserve"><use xlink:href="#C"/></svg></svg><path d="M13.7 346.6h251.7c7.6 0 13.7-6.2 13.7-13.7V13.7c0-7.6-6.2-13.7-13.7-13.7H13.8C6.2 0 .1 6.2 0 13.7v319.2c0 7.6 6.2 13.7 13.7 13.7zM10.6 17.9c0-4.1 3.3-7.4 7.4-7.4h243.2c4.1 0 7.4 3.3 7.4 7.4v243.3c0 4.1-3.3 7.4-7.4 7.4H18c-4.1 0-7.4-3.3-7.4-7.4V17.9z"/><path d="M54.9 320.2c4.6-.1 7-1.7 7-5 0-2.7-1.5-4.2-4.6-4.8l-4.7-.7c-3.1-.5-5.4-1.6-7-3.4s-2.5-4-2.5-6.6c0-3.1 1-5.6 3.1-7.5 2-1.9 4.8-2.8 8.5-2.9 4.4.1 8.3 1.3 11.5 3.7l-3 4.4c-2.7-1.8-5.6-2.7-8.8-2.7-1.7 0-3 .4-4.2 1.2-1.2.9-1.8 2.1-1.8 3.9 0 1 .4 2 1.2 2.8s2.1 1.4 3.8 1.8c1 .2 2.3.4 4 .6 3.3.5 5.8 1.7 7.4 3.6s2.4 4.1 2.4 6.6c-.2 6.8-4.3 10.3-12.5 10.4-5.3 0-9.8-1.6-13.6-4.9l3.5-4.1c3 2.4 6.4 3.6 10.3 3.6zm42-4.8c-.8 3.3-2.3 5.8-4.5 7.6-2.3 1.8-4.9 2.6-8 2.6-2.8-.1-5.1-.7-7-2.1-1.9-1.3-3.3-2.7-4.2-4.3-.3-.5-.5-1-.7-1.5s-.4-1.1-.5-1.9c-.2-1.4-.4-4.2-.4-8.3s.1-6.9.4-8.3.7-2.5 1.2-3.4c.9-1.6 2.2-3.1 4.2-4.4 1.9-1.3 4.2-2 7-2 3.4 0 6.2 1 8.4 3.1 2.2 2 3.5 4.5 4.1 7.5h-5.7a7.46 7.46 0 0 0-2.4-3.7c-1.2-1-2.7-1.5-4.4-1.5-1.3 0-2.4.3-3.3.8s-1.7 1.1-2.2 1.8a5.98 5.98 0 0 0-1.4 3c-.3 1.3-.4 3.7-.4 7.2s.1 5.9.4 7.1a5.98 5.98 0 0 0 1.4 3 7.87 7.87 0 0 0 2.2 1.8c.9.5 2 .8 3.3.8 3 0 5.3-1.6 6.8-4.9h5.7 0zm22.2 2h-13.5l-2.7 8h-5.7l12.9-35.6h4.5l12.9 35.6h-5.7l-2.7-8zm-1.7-4.8l-5.2-15.6h-.1l-5.2 15.6h10.5zm13.8-22.9h5.1l16.1 25.3h.1v-25.3h5.4v35.6h-5.1l-16-25.3h-.1v25.3h-5.4v-35.6h-.1zm46.2 0h5.1l10.2 23.2 10-23.2h5.1v35.6h-5.4v-22.2h-.1l-7.4 17.1h-4.5l-7.4-17.1h0v22.2h-5.4v-35.6h-.2zm37.9 0H238v5.1h-17.3V305h14.8v4.8h-14.8v10.4H238v5.1h-22.7v-35.6z" fill="#fff"/><defs ><path id="B" d="M600.99 0h-100-99.997-.001-99.997-99.998-99.998H1v99.998 99.998 99.998 99.999 99.997 99.998 99.998h99.999 99.998 99.998 99.997.001 99.997 100 99.998v-99.998-99.998-99.997-99.999-99.998-99.998V0H600.99zm0 199.996v99.998 99.999 99.997 99.998h-100-99.997-.001-99.997-99.998-99.998V499.99v-99.997-99.999-99.998-99.998h99.998 99.998 99.997.001 99.997 100v99.998z"/><path id="C" d="M399.994 199.997h-.002-99.996-99.998v99.997 100 99.997h99.998 99.996.002 99.996v-99.997-100-99.997z"/></defs></svg>